<?xml version="1.0" encoding="UTF-8"?>
<svg xmlns="http://www.w3.org/2000/svg" xmlns:xlink="http://www.w3.org/1999/xlink" width="300pt" height="300pt" viewBox="0 0 300 300" version="1.1">
<g id="surface1">
<rect x="0" y="0" width="300" height="300" style="fill:rgb(100%,100%,100%);fill-opacity:1;stroke:none;"/>
<path style=" stroke:none;fill-rule:nonzero;fill:rgb(94.099426%,38.398743%,12.89978%);fill-opacity:1;" d="M 168.242188 141.679688 C 171.058594 138.167969 175.023438 136.785156 179.304688 136.144531 C 182.207031 135.707031 185.214844 135.808594 188.058594 135.164063 C 194.652344 133.675781 200.335938 130.238281 205.09375 125.617188 C 212.292969 118.617188 219.117188 111.238281 226.167969 104.085938 C 230.410156 99.78125 235.203125 96.3125 241.347656 95.171875 C 248.4375 93.859375 255.09375 94.851563 261.125 98.96875 C 261.921875 99.511719 262.652344 100.148438 263.902344 101.121094 C 250.757813 96.820313 241.65625 98.945313 235.136719 107.484375 C 229.441406 114.941406 229.210938 125.359375 234.5625 133.242188 C 240.445313 141.910156 249.5 144.496094 262.554688 141.03125 C 258.59375 144.542969 254.128906 145.925781 249.328125 146.527344 C 242.558594 147.378906 235.792969 148.234375 229.019531 149.078125 C 215.542969 150.757813 204.210938 156.644531 194.984375 166.460938 C 191.042969 170.65625 186.378906 172.886719 180.542969 172.753906 C 185.773438 171.347656 189.964844 168.578125 192.441406 163.710938 C 194.898438 158.882813 194.945313 153.941406 192.761719 148.988281 C 188.753906 139.902344 179.738281 137.257813 168.242188 141.679688 "/>
<path style=" stroke:none;fill-rule:nonzero;fill:rgb(0%,0%,0%);fill-opacity:1;" d="M 236.238281 205.070313 C 237.25 201.066406 238.1875 197.363281 239.117188 193.65625 C 240.613281 187.691406 242.136719 181.734375 243.566406 175.757813 C 243.925781 174.265625 244.511719 173.511719 246.203125 173.613281 C 248.570313 173.753906 250.953125 173.648438 253.628906 173.648438 C 252.285156 179.03125 251.011719 184.140625 249.570313 189.921875 C 255.011719 186.878906 259.917969 184.128906 264.828125 181.378906 C 265.027344 181.542969 265.230469 181.707031 265.429688 181.871094 C 264.355469 183.34375 263.484375 185.042969 262.144531 186.21875 C 261.050781 187.183594 260.921875 187.851563 261.355469 189.125 C 263.144531 194.347656 264.816406 199.609375 266.675781 205.296875 C 263.882813 205.296875 261.371094 205.363281 258.875 205.226563 C 258.464844 205.203125 257.941406 204.320313 257.746094 203.742188 C 256.636719 200.464844 255.613281 197.160156 254.546875 193.867188 C 254.382813 193.371094 254.136719 192.90625 253.835938 192.203125 C 252.015625 193.328125 250.257813 194.300781 248.652344 195.472656 C 248.117188 195.863281 247.839844 196.734375 247.652344 197.441406 C 246.96875 200.027344 246.367188 202.632813 245.773438 205.070313 "/>
<path style=" stroke:none;fill-rule:nonzero;fill:rgb(0%,0%,0%);fill-opacity:1;" d="M 61.835938 182.886719 L 68.773438 182.886719 C 73.734375 182.886719 78.699219 182.855469 83.664063 182.898438 C 88.636719 182.941406 89.902344 184.515625 88.789063 189.378906 C 87.695313 194.175781 86.507813 198.953125 85.246094 203.710938 C 85.082031 204.339844 84.265625 205.214844 83.707031 205.25 C 81.09375 205.414063 78.464844 205.324219 75.527344 205.324219 C 76.4375 201.40625 77.285156 197.769531 78.195313 193.859375 C 74.710938 193.859375 71.472656 193.683594 68.277344 193.972656 C 67.398438 194.054688 66.265625 195.386719 65.902344 196.378906 C 64.046875 201.425781 64.789063 202.347656 70.203125 202.230469 C 71.1875 202.210938 72.175781 202.226563 73.398438 202.226563 C 72.8125 204.183594 71.667969 205.183594 69.875 205.210938 C 65.84375 205.261719 61.8125 205.21875 57.78125 205.164063 C 55.703125 205.136719 54.726563 203.894531 55.144531 201.988281 C 55.734375 199.304688 56.320313 196.53125 57.535156 194.109375 C 58.164063 192.859375 60.09375 191.65625 61.539063 191.519531 C 65.84375 191.105469 70.203125 191.234375 74.539063 191.144531 C 75.390625 191.128906 76.457031 191.378906 77.042969 190.972656 C 78.015625 190.292969 78.675781 189.179688 79.46875 188.25 C 78.625 187.644531 77.816406 186.570313 76.9375 186.511719 C 73.464844 186.292969 69.964844 186.304688 66.480469 186.40625 C 64.132813 186.472656 62.585938 185.671875 61.835938 182.886719 "/>
<path style=" stroke:none;fill-rule:nonzero;fill:rgb(0%,0%,0%);fill-opacity:1;" d="M 193.78125 205.324219 C 194.734375 201.292969 195.578125 197.726563 196.460938 194.007813 C 193.011719 194.007813 189.78125 193.789063 186.597656 194.085938 C 184.453125 194.28125 182.324219 199.453125 183.660156 201.121094 C 184.300781 201.925781 185.761719 202.273438 186.90625 202.441406 C 188.402344 202.660156 189.957031 202.492188 191.695313 202.492188 C 191.101563 204.230469 190.105469 205.289063 188.363281 205.304688 C 184.410156 205.339844 180.449219 205.382813 176.503906 205.203125 C 173.628906 205.074219 173.203125 204.398438 173.453125 201.558594 C 173.480469 201.253906 173.476563 200.941406 173.546875 200.640625 C 175.449219 192.042969 176.570313 191.394531 184.296875 191.320313 C 187.320313 191.289063 190.34375 191.371094 193.367188 191.375 C 194.058594 191.375 194.988281 191.515625 195.394531 191.148438 C 196.339844 190.285156 197.03125 189.15625 197.828125 188.132813 C 196.902344 187.601563 196 186.65625 195.050781 186.609375 C 191.570313 186.441406 188.066406 186.441406 184.585938 186.636719 C 182.046875 186.777344 181.035156 185.375 180.066406 183.074219 C 182.484375 183.074219 184.625 183.070313 186.765625 183.074219 C 192.195313 183.085938 197.625 183.035156 203.054688 183.132813 C 206.929688 183.203125 208.003906 184.421875 207.226563 188.191406 C 206.144531 193.460938 204.800781 198.679688 203.472656 203.894531 C 203.328125 204.457031 202.550781 205.230469 202.035156 205.257813 C 199.417969 205.398438 196.789063 205.324219 193.78125 205.324219 "/>
<path style=" stroke:none;fill-rule:nonzero;fill:rgb(0%,0%,0%);fill-opacity:1;" d="M 89.527344 202.28125 C 92.5625 202.28125 95.398438 202.289063 98.234375 202.28125 C 101.492188 202.269531 104.75 202.199219 108.007813 202.253906 C 109.582031 202.277344 110.273438 201.5625 110.398438 200.101563 C 110.527344 198.601563 109.78125 197.699219 108.359375 197.519531 C 106.75 197.3125 105.113281 197.242188 103.492188 197.246094 C 100.777344 197.25 98.0625 197.421875 95.347656 197.40625 C 92.625 197.394531 91.660156 196.246094 92.226563 193.585938 C 92.671875 191.484375 93.277344 189.402344 93.992188 187.375 C 94.796875 185.089844 96.550781 183.398438 98.929688 183.339844 C 106.484375 183.144531 114.046875 183.265625 121.664063 183.265625 C 121.25 185.660156 119.710938 186.316406 117.636719 186.308594 C 113.761719 186.300781 109.882813 186.300781 106.003906 186.324219 C 105.074219 186.328125 104.074219 186.253906 103.246094 186.574219 C 102.574219 186.832031 101.71875 187.59375 101.667969 188.191406 C 101.613281 188.816406 102.285156 189.773438 102.902344 190.109375 C 103.65625 190.523438 104.6875 190.546875 105.597656 190.558594 C 109.320313 190.609375 113.046875 190.539063 116.769531 190.609375 C 120.316406 190.679688 121.132813 191.792969 120.328125 195.222656 C 118.246094 204.117188 116.703125 205.332031 107.515625 205.332031 C 102.859375 205.332031 98.207031 205.359375 93.550781 205.308594 C 91.710938 205.289063 90.058594 204.828125 89.527344 202.28125 "/>
<path style=" stroke:none;fill-rule:nonzero;fill:rgb(0%,0%,0%);fill-opacity:1;" d="M 33.617188 182.597656 C 38.289063 184.242188 39.40625 181.53125 40.378906 178.21875 C 41.308594 175.058594 43.691406 173.546875 47.078125 173.605469 C 51.574219 173.683594 56.074219 173.667969 60.574219 173.707031 C 61.085938 173.710938 61.597656 173.820313 62.226563 173.894531 C 61.882813 175.617188 61.019531 176.484375 59.375 176.488281 C 57.433594 176.492188 55.484375 176.628906 53.5625 176.453125 C 50.992188 176.222656 49.605469 177.269531 49.148438 179.730469 C 48.96875 180.6875 48.699219 181.632813 48.394531 182.902344 L 58.339844 182.902344 C 57.492188 185.273438 56.464844 186.621094 53.945313 186.46875 C 51.8125 186.339844 49.089844 185.839844 47.679688 186.894531 C 46.371094 187.863281 46.441406 190.671875 45.941406 192.679688 C 45.027344 196.335938 44.085938 199.984375 43.277344 203.660156 C 42.988281 204.976563 42.402344 205.410156 41.078125 205.359375 C 38.617188 205.261719 36.148438 205.328125 33.324219 205.328125 C 34.855469 199.003906 36.316406 192.980469 37.664063 187.40625 C 36.117188 186.054688 34.785156 184.890625 33.457031 183.730469 C 33.507813 183.351563 33.5625 182.972656 33.617188 182.597656 "/>
<path style=" stroke:none;fill-rule:nonzero;fill:rgb(0%,0%,0%);fill-opacity:1;" d="M 140.347656 182.84375 L 149.9375 182.84375 C 149.789063 185.289063 148.46875 186.222656 146.519531 186.375 C 144.824219 186.507813 143.105469 186.511719 141.402344 186.425781 C 140.027344 186.355469 139.300781 186.753906 138.976563 188.1875 C 138.175781 191.714844 137.191406 195.199219 136.339844 198.714844 C 135.710938 201.308594 136.296875 202.097656 139.035156 202.222656 C 141.261719 202.328125 143.496094 202.246094 145.980469 202.246094 C 145.4375 204.277344 144.578125 205.355469 142.605469 205.339844 C 138.414063 205.304688 134.222656 205.363281 130.03125 205.316406 C 127.238281 205.285156 126.039063 204.21875 126.476563 201.449219 C 127.101563 197.511719 128.207031 193.652344 129.105469 189.757813 C 129.328125 188.789063 129.539063 187.824219 129.671875 187.238281 C 128.011719 185.960938 126.601563 184.875 125.1875 183.78125 C 125.644531 183.21875 125.695313 183.101563 125.742188 183.105469 C 129.238281 183.328125 131.914063 182.539063 132 178.316406 C 132.007813 178.015625 132.714844 177.484375 133.105469 177.472656 C 135.804688 177.398438 138.503906 177.433594 141.53125 177.433594 C 141.117188 179.324219 140.765625 180.933594 140.347656 182.84375 "/>
<path style=" stroke:none;fill-rule:nonzero;fill:rgb(0%,0%,0%);fill-opacity:1;" d="M 237.957031 183.148438 C 237.464844 185.566406 236.09375 186.398438 233.898438 186.335938 C 230.953125 186.246094 228.007813 186.34375 225.058594 186.3125 C 223.007813 186.285156 221.710938 187.035156 221.257813 189.183594 C 220.589844 192.339844 219.6875 195.445313 219.003906 198.597656 C 218.421875 201.285156 218.929688 201.988281 221.6875 202.101563 C 224.925781 202.230469 228.167969 202.132813 231.613281 202.132813 C 231.3125 204.273438 230.320313 205.28125 228.570313 205.296875 C 223.21875 205.34375 217.867188 205.394531 212.523438 205.253906 C 209.851563 205.179688 208.457031 203.566406 208.976563 200.933594 C 209.851563 196.496094 210.933594 192.078125 212.265625 187.753906 C 212.988281 185.402344 214.902344 183.347656 217.421875 183.246094 C 224.195313 182.96875 230.992188 183.148438 237.957031 183.148438 "/>
<path style=" stroke:none;fill-rule:nonzero;fill:rgb(0%,0%,0%);fill-opacity:1;" d="M 149.453125 205.34375 C 150.839844 199.886719 152.082031 194.988281 153.328125 190.089844 C 153.648438 188.824219 153.996094 187.5625 154.308594 186.296875 C 155.039063 183.347656 155.621094 182.871094 158.59375 182.929688 C 160.140625 182.960938 161.691406 183.035156 163.238281 183.101563 C 163.382813 183.105469 163.523438 183.199219 163.980469 183.367188 C 163.253906 186.421875 162.523438 189.519531 161.777344 192.613281 C 161.015625 195.75 160.199219 198.875 159.480469 202.023438 C 158.960938 204.300781 157.71875 205.5 155.25 205.359375 C 153.488281 205.261719 151.714844 205.34375 149.453125 205.34375 "/>
<path style=" stroke:none;fill-rule:nonzero;fill:rgb(0%,0%,0%);fill-opacity:1;" d="M 176.085938 183.324219 C 175.226563 186.316406 174.539063 186.824219 171.636719 186.886719 C 169.339844 186.9375 167.046875 187.089844 164.753906 187.195313 C 165.730469 183.4375 170.507813 182.484375 176.085938 183.324219 "/>
</g>
</svg>
