<?xml version="1.0" encoding="UTF-8"?>
<svg xmlns="http://www.w3.org/2000/svg" xmlns:xlink="http://www.w3.org/1999/xlink" width="650.35pt" height="339.78pt" viewBox="0 0 650.35 339.78" version="1.1">
<defs>
<clipPath id="clip1">
  <path d="M 0 105 L 650.351563 105 L 650.351563 339.78125 L 0 339.78125 Z M 0 105 "/>
</clipPath>
</defs>
<g id="surface1">
<path style=" stroke:none;fill-rule:nonzero;fill:rgb(13.699341%,12.199402%,12.5%);fill-opacity:1;" d="M 109.011719 223.234375 C 105.328125 223.234375 102.589844 220.542969 102.589844 216.902344 C 102.589844 213.257813 105.304688 210.546875 109.011719 210.546875 C 112.671875 210.546875 115.429688 213.304688 115.429688 216.902344 C 115.429688 220.476563 112.652344 223.234375 109.011719 223.234375 M 109.011719 208.003906 C 103.839844 208.003906 99.789063 211.621094 99.789063 216.902344 C 99.789063 222.179688 103.863281 225.777344 109.011719 225.777344 C 114.160156 225.777344 118.230469 222.160156 118.230469 216.902344 C 118.230469 211.621094 114.183594 208.003906 109.011719 208.003906 "/>
<path style=" stroke:none;fill-rule:nonzero;fill:rgb(13.699341%,12.199402%,12.5%);fill-opacity:1;" d="M 198.734375 176.886719 L 153.847656 176.886719 L 158.949219 98.867188 L 129.800781 176.886719 L 88.117188 176.886719 L 154.253906 0.542969 L 198.605469 0.542969 L 193.484375 79.628906 L 223.1875 0.542969 L 264.867188 0.542969 "/>
<path style=" stroke:none;fill-rule:nonzero;fill:rgb(13.699341%,12.199402%,12.5%);fill-opacity:1;" d="M 204.144531 176.886719 L 270.28125 0.542969 L 311.960938 0.542969 L 245.828125 176.886719 Z M 204.144531 176.886719 "/>
<g clip-path="url(#clip1)" clip-rule="nonzero">
<path style=" stroke:none;fill-rule:nonzero;fill:rgb(13.699341%,12.199402%,12.5%);fill-opacity:1;" d="M 83.3125 116.101563 C 25.0625 184.5 -29.878906 275.511719 18.652344 317.425781 C 65.675781 358.035156 124.457031 333.992188 164.535156 317.957031 C 204.613281 301.925781 647.609375 109.554688 647.609375 109.554688 C 651.886719 107.414063 651.082031 104.746094 645.738281 106.078125 C 643.582031 106.621094 163.46875 236.734375 163.46875 236.734375 C 102.546875 253.832031 33.082031 216.5625 83.3125 116.101563 "/>
</g>
<path style=" stroke:none;fill-rule:nonzero;fill:rgb(13.699341%,12.199402%,12.5%);fill-opacity:1;" d="M 109.03125 215.976563 L 107.652344 215.976563 L 107.652344 213.757813 L 108.816406 213.757813 C 109.527344 213.757813 110.347656 213.84375 110.347656 214.769531 C 110.347656 215.761719 109.871094 215.976563 109.03125 215.976563 M 110.582031 217.527344 C 111.875 217.460938 112.890625 216.792969 112.890625 215.007813 C 112.890625 212.699219 111.382813 212.117188 108.859375 212.117188 L 105.238281 212.117188 L 105.238281 221.683594 L 107.652344 221.683594 L 107.652344 217.613281 L 108.0625 217.613281 L 110.261719 221.683594 L 113.039063 221.683594 "/>
<path style=" stroke:none;fill-rule:nonzero;fill:rgb(13.699341%,12.199402%,12.5%);fill-opacity:1;" d="M 528.011719 15.234375 C 524.324219 15.234375 521.589844 12.542969 521.589844 8.902344 C 521.589844 5.261719 524.304688 2.546875 528.011719 2.546875 C 531.671875 2.546875 534.429688 5.304688 534.429688 8.902344 C 534.429688 12.476563 531.652344 15.234375 528.011719 15.234375 M 528.011719 0.00390625 C 522.839844 0.00390625 518.789063 3.621094 518.789063 8.902344 C 518.789063 14.179688 522.863281 17.777344 528.011719 17.777344 C 533.160156 17.777344 537.230469 14.160156 537.230469 8.902344 C 537.230469 3.621094 533.183594 0.00390625 528.011719 0.00390625 "/>
<path style=" stroke:none;fill-rule:nonzero;fill:rgb(13.699341%,12.199402%,12.5%);fill-opacity:1;" d="M 528.03125 7.976563 L 526.652344 7.976563 L 526.652344 5.757813 L 527.816406 5.757813 C 528.527344 5.757813 529.347656 5.84375 529.347656 6.769531 C 529.347656 7.761719 528.871094 7.976563 528.03125 7.976563 M 529.585938 9.527344 C 530.875 9.460938 531.886719 8.792969 531.886719 7.007813 C 531.886719 4.699219 530.382813 4.117188 527.859375 4.117188 L 524.238281 4.117188 L 524.238281 13.683594 L 526.652344 13.683594 L 526.652344 9.613281 L 527.0625 9.613281 L 529.261719 13.683594 L 532.039063 13.683594 "/>
<path style=" stroke:none;fill-rule:nonzero;fill:rgb(13.699341%,12.199402%,12.5%);fill-opacity:1;" d="M 366.195313 165.128906 L 363.527344 73.214844 L 426.546875 4.023438 Z M 500.546875 29.933594 L 511.746094 0.542969 L 384.566406 0.542969 L 340.894531 53.445313 L 361.054688 0.542969 L 318.839844 0.542969 L 253.238281 176.886719 L 294.921875 176.886719 L 322.925781 103.140625 L 324.84375 176.886719 L 452.738281 176.609375 L 464.914063 142.683594 L 416.285156 142.683594 L 432.261719 99.933594 L 472.339844 99.933594 L 484.667969 67.070313 L 444.59375 67.070313 L 458.332031 29.933594 "/>
</g>
</svg>
